<?xml version="1.0" encoding="UTF-8"?>
<svg xmlns="http://www.w3.org/2000/svg" width="100px" height="100px" viewBox="0 0 100 100">
  <g stroke-width="1" fill="none" fill-rule="evenodd">
    <path
      d="M35.24803,35.24687 C34.76083,37.20147 34.47373,39.23727
      34.47373,41.34267 C34.47373,55.25107 45.74893,66.52627
      59.65733,66.52627 C61.76273,66.52627 63.79853,66.23917
      65.75313,65.75197 C65.70093,65.95497 65.65163,66.15507
      65.59653,66.35227 C65.45443,66.87717 65.29493,67.39337
      65.11803,67.90087 C65.00493,68.22857 64.88893,68.55047
      64.76423,68.86947 C64.55833,69.38567 64.33503,69.89317
      64.09723,70.39197 C63.95513,70.69067 63.82173,70.99517
      63.66803,71.28517 C63.39543,71.80717 63.09383,72.31467
      62.78643,72.81637 C62.63273,73.06287 62.49643,73.31807
      62.33403,73.55877 C61.86423,74.26927 61.35963,74.96237
      60.81443,75.62357 C60.42583,75.63517 60.04883,75.68447
      59.65733,75.68447 C40.69133,75.68447 25.31553,60.30577
      25.31553,41.34267 C25.31553,40.95117 25.36193,40.57417
      25.37353,40.18557 C25.38223,40.17687 25.39383,40.17107
      25.40253,40.16237 C26.05793,39.62877 26.73653,39.13287
      27.43833,38.66597 C27.5204967,38.6118367 27.6042744,38.5596367
      27.6889115,38.5084033 L28.20103,38.20487 C28.69403,37.90037
      29.19283,37.60167 29.70613,37.33487 C30.00773,37.17827
      30.31513,37.03907 30.62253,36.89407 C31.11553,36.66207
      31.61143,36.44167 32.11603,36.23867 C32.44373,36.11107
      32.77723,35.99217 33.11073,35.87617 C33.61243,35.70217
      34.12283,35.54557 34.63613,35.40347 C34.83913,35.34837
      35.04213,35.29617 35.24803,35.24687 Z M59.6582,7 C78.6242,7
      94,22.3758 94,41.3418 C94,55.5779 85.3377,67.7869
      72.9982,72.9953 C73.4187,72.0006 73.7841,70.9827
      74.1089,69.9561 C74.2046,69.6458 74.2713,69.3239
      74.3612,69.0107 C74.57,68.2712 74.7759,67.5317 74.9354,66.7806
      C75.0166,66.3978 75.0659,66.0034 75.1326,65.6177
      C75.2573,64.913 75.3762,64.2141 75.4545,63.5065
      C75.5038,63.086 75.5212,62.651 75.556,62.2247 C75.5908,61.7433
      75.6517,61.2677 75.6662,60.7863 C75.6517,60.795
      75.6372,60.8008 75.6256,60.8124 C81.2516,56.1956
      84.8418,49.1892 84.8418,41.3418 C84.8418,27.4334
      73.5666,16.1553 59.6582,16.1553 C51.8108,16.1553
      44.8044,19.7484 40.1847,25.3744 L40.1847,25.3744
      L40.2166,25.3309 C39.7323,25.3483 39.2538,25.4092
      38.7695,25.444 C38.3432,25.4759 37.914,25.4962 37.4935,25.5426
      C36.783,25.6238 36.0783,25.7427 35.3736,25.8674
      C34.9908,25.9341 34.6022,25.9834 34.2194,26.0646
      C33.4625,26.2241 32.7114,26.4329 31.9632,26.6446
      C31.6587,26.7316 31.3484,26.7954 31.0468,26.8911
      C30.0173,27.213 29.0023,27.5813 28.0047,28.0018
      C33.2131,15.6623 45.425,7 59.6582,7 Z"
      id="Combined-Shape"
      fill-opacity="0.6"
      fill="#009748"
    ></path>
    <path
      d="M38.66481,27.44065 C38.50531,27.68135 38.36611,27.93365
      38.21531,28.18015 C37.90501,28.68475 37.60341,29.19225
      37.33371,29.71425 C37.18001,30.00425 37.04371,30.30585
      36.90451,30.60455 C36.66671,31.10625 36.44051,31.61085
      36.23751,32.12705 C36.11281,32.44605 35.99681,32.76795
      35.88371,33.09275 C35.70391,33.60605 35.54441,34.12515
      35.40231,34.65005 C35.34431,34.84725 35.29791,35.04735
      35.24571,35.24455 C37.20321,34.76025 39.23611,34.47315
      41.34151,34.47315 C55.24991,34.47315 66.52511,45.74835
      66.52511,59.65675 C66.52511,61.76215 66.23801,63.79505
      65.75371,65.75255 C65.95381,65.70035 66.15391,65.65395
      66.35111,65.59595 C66.87601,65.45095 67.38931,65.29435
      67.89971,65.11745 C68.22741,65.00435 68.55511,64.88835
      68.87411,64.76075 C69.39031,64.55775 69.89201,64.33445
      70.39081,64.09955 C70.68951,63.95745 70.99401,63.82115
      71.28691,63.66745 C71.80891,63.39195 72.31641,63.09325
      72.81521,62.78585 C73.06171,62.63505 73.31691,62.49295
      73.55761,62.33345 C74.26521,61.86365 74.95831,61.36195
      75.61661,60.81965 C75.61951,60.81965 75.62241,60.81675
      75.62531,60.81385 C75.63981,60.42525 75.68331,60.04825
      75.68331,59.65675 C75.68331,40.69075 60.30751,25.31495
      41.34151,25.31495 C40.95291,25.31495 40.57301,25.36135
      40.18441,25.37295 C40.18441,25.37295 40.18441,25.37585
      40.18441,25.37585 C39.63921,26.03705 39.13751,26.73015
      38.66481,27.44065"
      id="Fill-5"
      fill="#FBCC5C"
    ></path>
    <path
      d="M68.9817,74.36758 C68.2538,74.57058 67.5259,74.77648
      66.7864,74.93018 C66.3949,75.01428 65.9947,75.06648
      65.5974,75.13608 C64.9072,75.25788 64.2112,75.37678
      63.5123,75.45218 C63.0831,75.50148 62.6452,75.52178
      62.2102,75.55368 C61.7346,75.58848 61.2619,75.64938
      60.7834,75.66388 C56.1666,81.26958 49.1718,84.83948
      41.3418,84.83948 C27.4334,84.83948 16.1582,73.56718
      16.1582,59.65878 C16.1582,51.81138 19.7484,44.80498
      25.3744,40.18528 C25.3599,40.19398 25.3483,40.20268
      25.3338,40.21428 C25.3512,39.74448 25.4092,39.27758
      25.444,38.81068 C25.4759,38.36408 25.4962,37.91748
      25.5455,37.47668 C25.6238,36.79228 25.7398,36.11368
      25.8587,35.43508 C25.9283,35.02618 25.9834,34.61148
      26.0675,34.20548 C26.2212,33.48338 26.4213,32.76998
      26.6214,32.05948 C26.7171,31.72018 26.7896,31.37218
      26.894,31.03578 C27.2159,30.00918 27.5842,28.99708
      28.0018,28.00528 C15.6623,33.21078 7,45.42268 7,59.65878
      C7,78.62478 22.3758,94.00058 41.3418,94.00058 C55.575,94.00058
      67.7869,85.33538 72.9953,72.99588 C72.0006,73.41638
      70.9856,73.78468 69.959,74.10658 C69.64,74.20518
      69.3065,74.27768 68.9817,74.36758"
      id="Fill-7"
      fill="#FBCC5C"
    ></path>
    <path
      d="M75.62618,60.81472 C75.61168,61.28742 75.58848,61.75722
      75.55368,62.22412 C75.52178,62.65042 75.50148,63.08252
      75.45508,63.50592 C75.37388,64.21932 75.25498,64.91822
      75.13318,65.61712 C75.06648,66.00572 75.01428,66.39432
      74.93598,66.78002 C74.77358,67.53692 74.57058,68.27352
      74.36178,69.01012 C74.27188,69.32332 74.20808,69.64522
      74.10658,69.95552 C73.78468,70.99082 73.41348,72.00582
      72.99588,72.99472 C72.00698,73.41232 70.99198,73.78062
      69.95958,74.10832 C69.63768,74.20982 69.30708,74.27652
      68.98228,74.36642 C68.25728,74.57232 67.52938,74.77532
      66.78698,74.93192 C66.39258,75.01602 65.99528,75.06822
      65.59798,75.13492 C64.90778,75.25672 64.21758,75.37562
      63.51288,75.45102 C63.08078,75.50032 62.64578,75.52352
      62.21078,75.55542 C61.74968,75.58732 61.28278,75.60762
      60.81298,75.62502 C61.35528,74.96382 61.86278,74.27072
      62.33548,73.55732 C62.49498,73.31372 62.63418,73.06142
      62.78498,72.81492 C63.09528,72.31322 63.39398,71.81152
      63.66658,71.28662 C63.82028,70.99082 63.95658,70.69212
      64.09868,70.39052 C64.33358,69.89172 64.55978,69.39002
      64.76278,68.87092 C64.89038,68.55192 65.00348,68.22712
      65.11658,67.90232 C65.29348,67.39192 65.45298,66.87572
      65.59798,66.35372 C65.65018,66.15942 65.72848,65.97382
      65.77778,65.77662 C65.97208,65.72732 66.15768,65.65192
      66.35198,65.59682 C66.87688,65.45182 67.39308,65.29522
      67.90058,65.11832 C68.22828,65.00522 68.55308,64.88922
      68.87498,64.76162 C69.39118,64.55862 69.89288,64.33242
      70.39168,64.09752 C70.69038,63.95832 70.99198,63.82202
      71.28778,63.66832 C71.80978,63.39282 72.31438,63.09412
      72.81608,62.78382 C73.06258,62.63592 73.31778,62.49672
      73.55848,62.33432 C74.26898,61.86162 74.95918,61.35992
      75.61748,60.82052 C75.62038,60.82052 75.62328,60.81762
      75.62618,60.81472 Z M40.18441,25.37237 C39.64211,26.03357
      39.14041,26.72667 38.66481,27.44007 C38.50531,27.68077
      38.36611,27.93597 38.21531,28.18247 C37.90501,28.68417
      37.60631,29.18877 37.33371,29.71367 C37.18001,30.00657
      37.04371,30.30527 36.90451,30.60397 C36.66671,31.10277
      36.44051,31.61027 36.23751,32.12647 C36.11281,32.44547
      35.99681,32.77027 35.88371,33.09217 C35.70681,33.60547
      35.54441,34.12457 35.40231,34.65237 C35.34721,34.84377
      35.27181,35.02647 35.22541,35.22077 C35.02531,35.27007
      34.83391,35.34837 34.63671,35.40347 C34.12051,35.54557
      33.61301,35.70217 33.11131,35.87617 C32.77781,35.99217
      32.44721,36.11107 32.11661,36.23867 C31.60911,36.44167
      31.11321,36.66207 30.62311,36.89407 C30.31571,37.03907
      30.00831,37.17827 29.70671,37.33487 C29.19051,37.60457
      28.69461,37.90037 28.20161,38.20487 C27.94641,38.35857
      27.68541,38.50067 27.43891,38.66597 C26.73421,39.13287
      26.05271,39.62877 25.40311,40.16237 C25.39151,40.17107
      25.38281,40.17687 25.37411,40.18557 C25.38861,39.72447
      25.41181,39.26627 25.44371,38.81097 C25.47561,38.36727
      25.49881,37.92067 25.54811,37.47697 C25.62351,36.78677
      25.74241,36.11107 25.85841,35.43537 C25.92801,35.02357
      25.98311,34.61177 26.06721,34.20577 C26.22381,33.47787
      26.42101,32.77027 26.62111,32.05977 C26.71681,31.71757
      26.78641,31.37247 26.89371,31.03607 C27.21851,30.00367
      27.58681,28.99157 28.00441,28.00267 C28.99621,27.58507
      30.01121,27.21387 31.04651,26.88907 C31.34811,26.79627
      31.65841,26.73247 31.96581,26.64547 C32.70821,26.43377
      33.45641,26.22497 34.21911,26.06547 C34.60191,25.98427
      34.99051,25.93497 35.37331,25.86827 C36.07511,25.74357
      36.77691,25.62467 37.49321,25.54347 C37.91661,25.49707
      38.34581,25.47677 38.76921,25.44487 C39.23901,25.41007
      39.71171,25.38977 40.18441,25.37237 L40.18441,25.37237 Z"
      id="Combined-Shape"
      fill-opacity="0.7"
      fill="#ECFF8F"
    ></path>
  </g>
</svg> 