<?xml version="1.0" encoding="UTF-8"?> <svg xmlns="http://www.w3.org/2000/svg" width="100" height="100" viewBox="0 0 100 100"><path d="M50.115 80.757c2.172-.543 4.783.666 5.887 2.716.56 1.016.56 3.714 0 4.73-.473.894-1.735 2.086-2.628 2.471-1.051.473-3.084.42-4.223-.088-1.138-.508-2.347-1.822-2.733-2.943-1.016-2.978.683-6.132 3.697-6.886zM47.03 9.117c2.103-.245 6.027-.088 8.428.315 4.117.719 9.075 2.733 12.404 5.064 6.745 4.73 11.196 11.493 12.913 19.64.42 1.98.473 2.593.473 5.887.017 4.135-.21 5.781-1.227 9.128-3.311 11.003-12.457 19.325-23.67 21.602-.946.193-3.259.473-5.133.631-5.607.456-7.289 1.051-9.724 3.504-.999.999-1.577 1.752-1.997 2.61-.736 1.525-.754 1.56-1.7 5.958-.438 2.014-.893 3.907-1.034 4.24-.122.315-.56.893-.963 1.279-2.698 2.628-7.271.63-7.219-3.137 0-.91 9.62-46.183 10.057-47.445.333-.893 1.104-1.717 2.103-2.207 2.68-1.35 5.886.385 6.202 3.364.07.63-.35 2.89-1.857 9.759-2.488 11.405-2.996 13.928-2.874 14.138.053.088.28.123.49.07.982-.227 4.556-.648 7.552-.893 1.84-.14 3.907-.368 4.608-.526 8.357-1.752 15.05-8.252 17.135-16.644.613-2.453.77-6.325.333-8.848-.789-4.818-2.856-8.777-6.378-12.264-3.416-3.399-7.078-5.326-11.843-6.237-2.278-.42-5.957-.386-8.27.087-9.268 1.91-16.294 9.164-17.836 18.397-.245 1.401-.28 2.4-.21 4.467.088 2.593.28 3.68 1.016 6.133.648 2.067.21 3.819-1.244 5.045-2.067 1.787-5.431 1.122-6.675-1.296-.193-.368-.578-1.577-.858-2.68-3.33-12.913 1.541-26.159 12.439-33.745 4.012-2.82 9.426-4.818 14.56-5.396z" fill="#000" fill-rule="nonzero"></path></svg> 