<?xml version="1.0" encoding="UTF-8"?> <svg xmlns="http://www.w3.org/2000/svg" width="100" height="100" viewBox="0 0 100 100"><g fill="none" fill-rule="evenodd"><path d="M10 10h80v80H10V10zm4 4v72h72V14H14z" fill="#222" fill-rule="nonzero"></path><path d="M72.554 56.91V44.782h9.291c.186 0 .186 0 .186.18v1.821c-.075.003-.139.009-.202.009h-6.944c-.19 0-.191 0-.191.189v2.61c0 .186 0 .186.193.186h6.65c.196 0 .196 0 .196.197V51.786h-6.857c-.182 0-.182 0-.182.183V54.908h7.476v2.002h-9.616zM19.483 55.573l1.05-1.805c.5.335 1.02.596 1.57.799 1.138.418 2.306.634 3.52.548.603-.042 1.188-.152 1.71-.48.42-.264.647-.639.637-1.143a.962.962 0 0 0-.398-.783c-.387-.296-.843-.414-1.306-.514-.964-.209-1.933-.39-2.89-.626-.583-.144-1.153-.35-1.717-.56-.276-.104-.536-.268-.783-.434-.557-.375-.875-.907-.973-1.572a4.077 4.077 0 0 1 .104-1.709c.231-.828.745-1.43 1.491-1.846.885-.493 1.84-.756 2.842-.847 1.541-.139 3.044.036 4.488.612.384.153.755.343 1.149.524l-1.049 1.817-.158-.082a7.578 7.578 0 0 0-4.809-.805c-.452.07-.88.215-1.25.5-.42.325-.599.752-.532 1.28.044.344.243.578.536.744.362.205.758.318 1.162.396.808.157 1.62.292 2.426.45.679.133 1.357.275 1.992.563.451.205.853.485 1.217.82.336.308.554.69.674 1.128.359 1.315-.103 2.645-1.215 3.488-.702.533-1.506.826-2.363.976-1.476.26-2.935.15-4.374-.254-.906-.255-1.787-.579-2.598-1.07-.04-.024-.08-.049-.118-.075-.01-.007-.018-.02-.035-.04M58.875 56.92h-.162c-.678 0-1.356-.002-2.034.003-.106 0-.153-.034-.194-.131-.379-.895-.766-1.787-1.145-2.681-.046-.107-.101-.143-.218-.143-1.93.004-3.862.004-5.793 0-.115 0-.172.035-.217.142-.38.895-.766 1.786-1.146 2.68-.04.096-.089.134-.196.133-.678-.005-1.356-.003-2.034-.003-.04 0-.082-.004-.143-.007.023-.058.04-.104.06-.15 1.76-3.947 3.52-7.895 5.278-11.844.049-.11.107-.14.22-.139.73.005 1.459.005 2.188 0 .118-.001.171.04.217.144 1.75 3.947 3.504 7.893 5.257 11.84.018.041.034.084.062.156zm-4.469-4.967l-2.181-5.106-2.18 5.106h4.361zM33.182 44.782h.518c.481 0 .963.006 1.444-.003.142-.002.182.036.181.18-.005 1.898-.003 3.796-.003 5.695v.222c.061-.058.094-.086.123-.116 1.903-1.952 3.806-3.904 5.706-5.859a.353.353 0 0 1 .28-.121c.78.005 1.562.002 2.342.002h.151l.02.032-5.224 5.483 5.778 6.609c-.06.006-.098.014-.135.014-.804 0-1.609-.002-2.413.003-.107 0-.159-.057-.218-.124a18382.31 18382.31 0 0 0-4.25-4.856l-.164-.18c-.039.036-.07.062-.099.092-.602.634-1.206 1.266-1.803 1.905a.374.374 0 0 0-.09.232c-.006.916-.007 1.833-.001 2.75 0 .134-.025.185-.175.182-.603-.01-1.206-.004-1.81-.004h-.158V44.782zM70.214 54.913v1.996h-8.993v-.155c0-3.933.001-7.865-.003-11.798 0-.146.042-.178.181-.177.594.008 1.188.003 1.782.003.191 0 .192 0 .192.189v9.735c0 .24-.02.206.213.206h6.628z" fill="#000"></path></g></svg> 