<?xml version="1.0" encoding="UTF-8"?> <svg xmlns="http://www.w3.org/2000/svg" width="100" height="100" viewBox="0 0 100 100"><path d="M75.575 9.355v14.91l14.683-14.91H75.575zM59.06 24.265h14.683V9.355H59.06v14.91zm-16.513 0H57.23V9.355H42.547v14.91zm-16.515 0h14.68V9.355h-14.68v14.91zm-1.835-14.91L9.519 24.265h14.678V9.355zM9.519 41.04h14.678V26.13H9.519v14.91zM75.575 57.81h14.683L75.575 42.9v14.91zm-16.515 0h14.683V42.902H59.06V57.81zm-16.513 0H57.23V42.902H42.547V57.81zm-16.515 0h14.68V42.902h-14.68V57.81zM9.52 42.9l14.678 14.91V42.9H9.519zm66.056 31.683h14.683V59.674H75.575v14.909zm0 1.863v14.91l14.683-14.91H75.575zM59.06 91.356h14.683v-14.91H59.06v14.91zm-16.513 0H57.23v-14.91H42.547v14.91zm-16.515 0h14.68v-14.91h-14.68v14.91zm-16.513 0h14.678v-14.91L9.519 91.356z" fill="#222" fill-rule="evenodd"></path></svg> 